# xmcd CD database file
#
# Track frame offsets:
#	150
#	20802
#	29074
#	47934
#	61042
#	69305
#	82805
#	97792
#	119512
#	145090
#	167382
#	181023
#	189613
#	212760
#	228142
#	243848
#	257377
#	276180
#	293770
#	316603
#	325675
#
# Disc length: 4517 seconds
#
# Revision: 1
# Processed by: cddbd v1.5.2PL0 Copyright (c) Steve Scherf et al.
# Submitted via: CDex 1.70beta2
#
DISCID=1211a315
DTITLE=Wynton Marsalis - Standard Time, Vol.3: The Resolution Of Romance
DYEAR=1900
DGENRE=Jazz
TTITLE0=In The Court Of King Oliver
TTITLE1=Never Let Me Go
TTITLE2=Street Of Dreams
TTITLE3=Where Or When
TTITLE4=Bona And Paul
TTITLE5=The Seductress
TTITLE6=A Sleepin' Bee
TTITLE7=Big Butter And Egg Man
TTITLE8=The Very Thought Of You
TTITLE9=I Cover The Waterfront
TTITLE10=How Are Things In Glocca Morra
TTITLE11=My Romance
TTITLE12=Everything Happens To Me
TTITLE13=Flamingo
TTITLE14=You're My Everything
TTITLE15=Skylark
TTITLE16=It's Easy To Remember
TTITLE17=Taking A Chance On Love
TTITLE18=I Gotta Right To Sing The Blues
TTITLE19=In The Wee Small Hours Of The Morning
TTITLE20=It's Too Late Now
EXTD=
EXTT0=
EXTT1=
EXTT2=
EXTT3=
EXTT4=
EXTT5=
EXTT6=
EXTT7=
EXTT8=
EXTT9=
EXTT10=
EXTT11=
EXTT12=
EXTT13=
EXTT14=
EXTT15=
EXTT16=
EXTT17=
EXTT18=
EXTT19=
EXTT20=
PLAYORDER=
